<?xml version="1.0" encoding="utf-8"?>
<!-- Generator: Adobe Illustrator 25.2.1, SVG Export Plug-In . SVG Version: 6.00 Build 0)  -->
<svg version="1.1" id="Layer_1" xmlns="http://www.w3.org/2000/svg" xmlns:xlink="http://www.w3.org/1999/xlink" x="0px" y="0px"
	 viewBox="0 0 512 512" style="enable-background:new 0 0 512 512;" xml:space="preserve">
<style type="text/css">
	.st0{fill:#F94708;}
</style>
<g>
	<g>
		<path class="st0" d="M256,0C114.8,0,0,114.8,0,256s114.8,256,256,256s256-114.8,256-256S397.2,0,256,0z M384,277.3H277.3V384
			c0,11.8-9.6,21.3-21.3,21.3s-21.3-9.6-21.3-21.3V277.3H128c-11.8,0-21.3-9.6-21.3-21.3s9.6-21.3,21.3-21.3h106.6V128
			c0-11.8,9.6-21.3,21.3-21.3s21.3,9.6,21.3,21.3v106.7H384c11.8,0,21.3,9.6,21.3,21.3S395.8,277.3,384,277.3z"/>
	</g>
</g>
</svg>
